<svg xmlns="http://www.w3.org/2000/svg" xmlns:xlink="http://www.w3.org/1999/xlink" viewBox="0 0 463.59 623.43"><defs><radialGradient id="radial-gradient" cx="-15083.63" cy="9079.23" fx="-15096.61145996039" r="203.56" gradientTransform="matrix(0.76, 0.03, 0.05, -1.12, 11453.19, 10793.76)" gradientUnits="userSpaceOnUse"><stop offset="0.1" stop-color="#ffea00"/><stop offset="0.17" stop-color="#ffde00"/><stop offset="0.28" stop-color="#ffbf00"/><stop offset="0.43" stop-color="#ff8e00"/><stop offset="0.77" stop-color="#ff272d"/><stop offset="0.87" stop-color="#e0255a"/><stop offset="0.95" stop-color="#cc2477"/><stop offset="1" stop-color="#c42482"/></radialGradient><radialGradient id="radial-gradient-2" cx="-7905.51" cy="8660.94" r="357.23" gradientTransform="matrix(1.23, 0, 0, -1.23, 9988.54, 10698.93)" gradientUnits="userSpaceOnUse"><stop offset="0" stop-color="#00ccda"/><stop offset="0.22" stop-color="#0083ff"/><stop offset="0.26" stop-color="#007af9"/><stop offset="0.33" stop-color="#0060e8"/><stop offset="0.33" stop-color="#005fe7"/><stop offset="0.44" stop-color="#2639ad"/><stop offset="0.52" stop-color="#401e84"/><stop offset="0.57" stop-color="#4a1475"/></radialGradient><linearGradient id="linear-gradient" x1="246.62" y1="294.78" x2="160.2" y2="577.52" gradientTransform="matrix(1, 0, 0, -1, 0, 624)" gradientUnits="userSpaceOnUse"><stop offset="0" stop-color="#000f43" stop-opacity="0.4"/><stop offset="0.48" stop-color="#001962" stop-opacity="0.17"/><stop offset="1" stop-color="#002079" stop-opacity="0"/></linearGradient><radialGradient id="radial-gradient-3" cx="-8798.45" cy="7431.01" r="120.49" gradientTransform="matrix(1.22, 0.12, 0.12, -1.22, 10266.83, 10424.49)" gradientUnits="userSpaceOnUse"><stop offset="0" stop-color="#ffea00"/><stop offset="0.5" stop-color="#ff272d"/><stop offset="1" stop-color="#c42482"/></radialGradient><radialGradient id="radial-gradient-4" cx="-8809.35" cy="7546.55" r="201.22" gradientTransform="matrix(1.22, 0.12, 0.12, -1.22, 10266.83, 10424.49)" gradientUnits="userSpaceOnUse"><stop offset="0" stop-color="#ffe900"/><stop offset="0.16" stop-color="#ffaf0e"/><stop offset="0.32" stop-color="#ff7a1b"/><stop offset="0.47" stop-color="#ff4e26"/><stop offset="0.62" stop-color="#ff2c2e"/><stop offset="0.76" stop-color="#ff1434"/><stop offset="0.89" stop-color="#ff0538"/><stop offset="1" stop-color="#ff0039"/></radialGradient><radialGradient id="radial-gradient-5" cx="-8780.89" cy="7360.02" r="184.64" gradientTransform="matrix(1.22, 0.12, 0.12, -1.22, 10266.83, 10424.49)" gradientUnits="userSpaceOnUse"><stop offset="0" stop-color="#ff272d"/><stop offset="0.5" stop-color="#c42482"/><stop offset="0.99" stop-color="#620700"/></radialGradient><radialGradient id="radial-gradient-6" cx="325.44" cy="446.1" fx="338.06860390438715" r="353.14" gradientTransform="matrix(1, 0, 0, -1, 0, 624)" gradientUnits="userSpaceOnUse"><stop offset="0.16" stop-color="#ffea00"/><stop offset="0.23" stop-color="#ffde00"/><stop offset="0.37" stop-color="#ffbf00"/><stop offset="0.54" stop-color="#ff8e00"/><stop offset="0.76" stop-color="#ff272d"/><stop offset="0.8" stop-color="#f92433"/><stop offset="0.84" stop-color="#e91c45"/><stop offset="0.89" stop-color="#cf0e62"/><stop offset="0.94" stop-color="#b5007f"/></radialGradient><radialGradient id="radial-gradient-7" cx="305.19" cy="609.87" r="402.47" gradientTransform="matrix(1, 0, 0, -1, 0, 624)" gradientUnits="userSpaceOnUse"><stop offset="0.28" stop-color="#ffea00"/><stop offset="0.4" stop-color="#fd0"/><stop offset="0.63" stop-color="#ffba00"/><stop offset="0.86" stop-color="#ff9100"/><stop offset="0.93" stop-color="#ff6711"/><stop offset="0.99" stop-color="#ff4a1d"/></radialGradient><linearGradient id="linear-gradient-2" x1="-9109.15" y1="7511.68" x2="-8970.53" y2="7547.01" gradientTransform="matrix(1.22, 0.12, 0.12, -1.22, 10266.83, 10424.49)" gradientUnits="userSpaceOnUse"><stop offset="0" stop-color="#c42482" stop-opacity="0.5"/><stop offset="0.47" stop-color="#ff272d" stop-opacity="0.5"/><stop offset="0.49" stop-color="#ff2c2c" stop-opacity="0.51"/><stop offset="0.68" stop-color="#ff7a1a" stop-opacity="0.72"/><stop offset="0.83" stop-color="#ffb20d" stop-opacity="0.87"/><stop offset="0.94" stop-color="#ffd605" stop-opacity="0.96"/><stop offset="1" stop-color="#ffe302"/></linearGradient><linearGradient id="linear-gradient-3" x1="137.18" y1="1869.73" x2="112.55" y2="1932.87" gradientTransform="matrix(0.99, 0.1, 0.1, -0.99, -253.89, 1960.03)" gradientUnits="userSpaceOnUse"><stop offset="0" stop-color="#891551" stop-opacity="0.6"/><stop offset="1" stop-color="#c42482" stop-opacity="0"/></linearGradient><linearGradient id="linear-gradient-4" x1="-143.14" y1="176.6" x2="-100.66" y2="128.34" gradientTransform="matrix(0.99, 0.1, 0.1, -0.99, 225.24, 399.62)" gradientUnits="userSpaceOnUse"><stop offset="0.01" stop-color="#891551" stop-opacity="0.5"/><stop offset="0.48" stop-color="#ff272d" stop-opacity="0.5"/><stop offset="1" stop-color="#ff272d" stop-opacity="0"/></linearGradient><linearGradient id="linear-gradient-5" x1="-61.34" y1="94.02" x2="-61.31" y2="127.78" gradientTransform="matrix(0.99, 0.1, 0.1, -0.99, 225.24, 399.62)" gradientUnits="userSpaceOnUse"><stop offset="0" stop-color="#c42482"/><stop offset="0.08" stop-color="#c42482" stop-opacity="0.81"/><stop offset="0.21" stop-color="#c42482" stop-opacity="0.57"/><stop offset="0.33" stop-color="#c42482" stop-opacity="0.36"/><stop offset="0.45" stop-color="#c42482" stop-opacity="0.2"/><stop offset="0.56" stop-color="#c42482" stop-opacity="0.09"/><stop offset="0.67" stop-color="#c42482" stop-opacity="0.02"/><stop offset="0.77" stop-color="#c42482" stop-opacity="0"/></linearGradient><linearGradient id="linear-gradient-6" x1="282.7" y1="607.69" x2="420.7" y2="299.11" gradientTransform="matrix(1, 0, 0, -1, 0, 624)" gradientUnits="userSpaceOnUse"><stop offset="0" stop-color="#fff14f"/><stop offset="0.27" stop-color="#ffee4c"/><stop offset="0.45" stop-color="#ffe643"/><stop offset="0.61" stop-color="#ffd834"/><stop offset="0.76" stop-color="#ffc41e"/><stop offset="0.89" stop-color="#ffab02"/><stop offset="0.9" stop-color="#ffa900"/><stop offset="0.95" stop-color="#ffa000"/><stop offset="1" stop-color="#ff9100"/></linearGradient><linearGradient id="linear-gradient-7" x1="309.96" y1="430.22" x2="244.59" y2="254.71" gradientTransform="matrix(1, 0, 0, -1, 0, 624)" gradientUnits="userSpaceOnUse"><stop offset="0" stop-color="#ff8e00"/><stop offset="0.04" stop-color="#ff8e00" stop-opacity="0.86"/><stop offset="0.08" stop-color="#ff8e00" stop-opacity="0.73"/><stop offset="0.13" stop-color="#ff8e00" stop-opacity="0.63"/><stop offset="0.18" stop-color="#ff8e00" stop-opacity="0.56"/><stop offset="0.23" stop-color="#ff8e00" stop-opacity="0.51"/><stop offset="0.28" stop-color="#ff8e00" stop-opacity="0.5"/><stop offset="0.39" stop-color="#ff8e00" stop-opacity="0.48"/><stop offset="0.52" stop-color="#ff8e00" stop-opacity="0.42"/><stop offset="0.68" stop-color="#ff8e00" stop-opacity="0.31"/><stop offset="0.84" stop-color="#ff8e00" stop-opacity="0.17"/><stop offset="1" stop-color="#ff8e00" stop-opacity="0"/></linearGradient></defs><title>firefox-logo-stacked-lockup</title><g id="Layer_2" data-name="Layer 2"><g id="Layer_1-2" data-name="Layer 1"><g id="Layer_2-2" data-name="Layer 2"><g id="Layer_1-2-2" data-name="Layer 1-2"><path d="M350.31,41.34C339.5,53.93,334.47,82.26,345.43,111s27.76,22.48,38.24,51.77c13.83,38.65,7.39,90.56,7.39,90.56s16.62,48.13,28.2-3C444.9,154.29,350.31,65,350.31,41.34Z" style="fill:url(#radial-gradient)"/><path id="_Path_" data-name=" Path " d="M218.38,440c110.72,0,200.41-90.18,200.41-201.37S329.1,37.28,218.49,37.28,18.19,127.46,18.19,238.66C18,350,107.77,440,218.38,440Z" style="fill:url(#radial-gradient-2)"/><path d="M368.55,362.83A111.12,111.12,0,0,1,355,371a316.7,316.7,0,0,0,17.29-28.43,111.06,111.06,0,0,0,11.37-14.29c1.55-2.44,3.3-5.45,5.15-8.95,11.25-20.27,23.66-53.08,24-86.78V230a116.33,116.33,0,0,0-2.58-25.17c.09.65.17,1.29.25,1.94-.1-.5-.18-1-.29-1.5.17.92.3,1.8.44,2.7,2.3,19.51.66,38.54-7.53,52.58l-.39.6c4.25-21.33,5.67-44.87.94-68.45,0,0-1.89-11.46-16-46.25-8.1-20-22.5-36.44-35.22-48.4-11.15-13.79-21.27-23-26.85-28.92C313.92,56.87,309,47.67,307,41.67c-1.74-.87-24-22.49-25.76-23.31C271.56,33.42,241,80.52,255.55,124.52c6.58,19.94,23.24,40.64,40.66,52.25.77.87,10.37,11.31,14.94,34.84,4.72,24.31,2.24,43.28-7.47,71.33-11.42,24.61-40.66,48.94-68,51.42-58.54,5.32-80-29.39-80-29.39,20.92,8.36,44,6.61,58.12-2.06s22.75-15.27,29.71-12.71,12.32-4.86,7.42-12.54a35.44,35.44,0,0,0-35.85-15.61c-14.19,2.31-27.19,13.55-45.79,2.66a38.09,38.09,0,0,1-3.49-2.29c-1.23-.81,4,1.23,2.77.31A91.14,91.14,0,0,1,156.86,255c-.28-.25,2.81,1,2.53.73-17.39-14.32-15.22-24-14.67-30.06.44-4.85,3.6-11.07,8.92-13.59,2.57,1.4,4.17,2.47,4.17,2.47s-1.1-2.24-1.69-3.42c.21-.09.41-.07.61-.15a104,104,0,0,1,9.21,5.27,13.59,13.59,0,0,1,4.21,4.26s.84-.46.22-2.43a12.63,12.63,0,0,0-4.37-6h.2a36.61,36.61,0,0,1,5.36,3.72c.89-3.24,2.5-6.63,2.14-12.68-.22-4.26-.12-5.36-.87-7-.67-1.41.38-2,1.54-.5a15,15,0,0,0-1-3.34v-.11c1.46-5.07,30.81-18.27,32.95-19.81A30.39,30.39,0,0,0,215,163c1.63-2.6,2.86-6.25,3.16-11.79.16-4-1.7-6.65-31.38-9.76-8.12-.8-12.88-6.68-15.59-12.11-.49-1.17-1-2.23-1.5-3.29a26.57,26.57,0,0,1-1.16-3.81c4.85-13.94,13-25.72,25-34.63.65-.6-2.61.15-2-.44s5.74-2.7,6.68-3.15c1.15-.54-4.91-3.11-10.26-2.49a25.41,25.41,0,0,0-9.51,2.5c1.21-1.2,5-2.78,4.14-2.77-5.87.9-13.17,4.32-19.42,8.18a4.72,4.72,0,0,1,.38-2c-2.91,1.23-10,6.23-12.13,10.45a19.84,19.84,0,0,0,.12-2.44,38.51,38.51,0,0,0-6,6.24l-.11.1c-16.87-6.79-31.71-7.23-44.27-4.19-2.75-2.76-4.09-.74-10.34-14.48-.42-.83.33.82,0,0-1-2.66.63,3.55,0,0-10.51,8.29-24.34,17.69-31,24.33-.08.26,7.75-2.21,0,0-2.71.77-2.53,2.38-2.94,16.93-.1,1.1,0,2.34-.1,3.33-5.3,6.76-8.92,12.48-10.28,15.45C39.73,155,32.17,173.47,24.85,202.61a150.6,150.6,0,0,1,11.64-22.76c-6.09,15.47-12,39.77-13.15,77.18A216.88,216.88,0,0,1,29,234.16a213.55,213.55,0,0,0,15.68,90.78,221.89,221.89,0,0,0,23,43.07c77.56,81.76,206.72,85.16,288.48,7.6q6.45-6.12,12.35-12.78Z" style="fill:url(#linear-gradient)"/><path d="M323.59,391.3c73.53-8.51,106.08-84.29,64.28-85.78C350.11,304.31,288.76,395.32,323.59,391.3Z" style="fill:url(#radial-gradient-3)"/><path d="M393.17,290c50.59-29.44,37.4-93,37.4-93S411,219.68,397.78,255.84C384.67,291.64,362.75,307.83,393.17,290Z" style="fill:url(#radial-gradient-4)"/><path d="M232.56,428.94c70.53,22.51,131.16-33.06,93.79-51.61C292.37,360.59,199.08,418.29,232.56,428.94Z" style="fill:url(#radial-gradient-5)"/><path d="M398.42,317c1.72-2.42,4-10.17,6.09-13.64,12.45-20.1,12.54-36.13,12.54-36.5,7.52-37.57,6.84-52.91,2.21-81.29-3.73-22.85-20-55.57-34.12-71.33-14.54-16.24-4.3-10.95-18.37-22.81C354.44,77.81,342.47,64.26,336,58.82,288.92,19.46,290,11.1,290.89,9.67l-.66.74c-.56-2.22-1-4.09-1-4.09S263.5,32.06,258.08,75c-3.54,28,6.95,57.19,22.12,75.85A172.34,172.34,0,0,0,306.84,177h0c11.47,16.47,17.78,36.79,17.78,58.65a99.26,99.26,0,0,1-121.35,96.62c-25.84-4.92-40.76-18-48.21-26.81a48.67,48.67,0,0,1-6.08-8.77c23.15,8.29,48.75,6.56,64.32-2s25.18-15.15,32.88-12.6,13.64-4.82,8.22-12.43-19.14-18.5-39.68-15.48c-15.71,2.29-30.09,13.44-50.67,2.64q-2-1-3.86-2.27c-1.36-.8,4.41,1.22,3.06.31a102.82,102.82,0,0,1-12.93-7.71c-.31-.25,3.11,1,2.8.72C133.88,233.61,136.29,224,136.89,218a17.27,17.27,0,0,1,9.87-13.48c2.84,1.39,4.62,2.45,4.62,2.45s-1.21-2.22-1.87-3.39c.23-.09.45-.07.68-.15,2.33,1,7.48,3.63,10.2,5.22a14.2,14.2,0,0,1,4.66,4.23s.93-.46.24-2.41c-.25-.8-1.32-3.34-4.82-5.9h.22a40.76,40.76,0,0,1,5.93,3.69c1-3.22,2.76-6.57,2.37-12.58-.24-4.22-.13-5.32-1-7-.74-1.4.42-1.95,1.71-.49a13.35,13.35,0,0,0-1.1-3.32v-.11c1.61-5,34.1-18.12,36.47-19.65a31.67,31.67,0,0,0,9.56-9.31c1.81-2.58,3.17-6.2,3.5-11.69.11-2.47-.65-4.43-9.25-6.31-5.16-1.12-13.15-2.22-25.48-3.37-9-.79-14.26-6.63-17.25-12-.55-1.16-1.1-2.21-1.66-3.26a23.91,23.91,0,0,1-1.28-3.77,71.59,71.59,0,0,1,27.67-34.34c.72-.59-2.89.15-2.17-.44s6.35-2.68,7.39-3.12c1.27-.54-5.44-3.09-11.36-2.47a30.87,30.87,0,0,0-10.53,2.48c1.34-1.19,5.58-2.75,4.59-2.74-6.5.89-14.58,4.28-21.49,8.11a4.39,4.39,0,0,1,.42-2c-3.22,1.22-11.12,6.17-13.42,10.36a17.76,17.76,0,0,0,.13-2.42,40.23,40.23,0,0,0-6.59,6.19l-.12.1c-18.67-6.74-35.09-7.17-49-4.15-3-2.74-7.93-6.87-14.85-20.5-.47-.82-.72,1.7-1.08.89C70.11,65.21,68.49,55,68.8,48c0,0-5.56,2.53-10.16,13.12a36.42,36.42,0,0,1-2,4c-.25.31.57-3.48.44-3.27-.8,1.36-2.87,3.25-3.78,5.7-.63,1.82-1.5,2.83-2.06,5.1l-.13.21c0-.67.17-2.75,0-2.32A106.33,106.33,0,0,0,45.59,84a125.9,125.9,0,0,0-5.82,33.67c-.11,1.09,0,2.32-.11,3.3-5.87,6.7-9.87,12.38-11.38,15.32-7.59,11.72-16,30-24.06,58.9a143.37,143.37,0,0,1,12.88-22.6C10.36,187.93,3.84,212,2.54,249.13A197.88,197.88,0,0,1,8.8,226.44a192.15,192.15,0,0,0,17.36,90c9.29,20.36,30.67,61.69,82.9,94h0s17.77,13.23,48.32,23.14c2.26.82,4.54,1.63,6.88,2.41q-1.09-.45-2.13-.93a219.11,219.11,0,0,0,62.67,9.21c79.09.07,102.42-31.69,102.42-31.69l-.23.17c1.11-1.05,2.19-2.15,3.23-3.28-12.48,11.78-41,12.57-51.6,11.72,18.16-5.33,30.11-9.85,53.35-18.75q4.08-1.51,8.34-3.45l.93-.42c.56-.26,1.12-.51,1.69-.79a157.8,157.8,0,0,0,31.72-19.86c23.34-18.64,28.42-36.82,31.08-48.8-.37,1.15-1.52,3.83-2.33,5.56-6,12.86-19.34,20.75-33.82,27.52A310.84,310.84,0,0,0,388.69,334C393.42,329.31,394.9,322,398.42,317Z" style="fill:url(#radial-gradient-6)"/><path d="M370,361.63a149.59,149.59,0,0,0,24.54-36.1c16.66-35,42.42-93.27,22.13-154.09-16-48.08-38-74.36-66-100C305.29,29.69,292.61,11.07,292.61,0c0,0-52.41,58.43-29.68,119.36s69.29,58.7,100.08,122.3c36.24,74.83-29.32,156.49-83.54,179.35,3.32-.74,120.53-27.26,126.69-94.31C406,327.93,403.38,346.47,370,361.63Z" style="fill:url(#radial-gradient-7)"/><path d="M218.17,144.19c.18-4-1.88-6.62-34.62-9.69-13.47-1.24-18.63-13.7-20.2-18.94-4.79,12.45-6.77,25.5-5.7,41.3.73,10.35,7.68,21.45,11,28a14.17,14.17,0,0,1,1.08-1.31c6.26-6.52,32.48-16.44,34.94-17.85C207.38,164,217.71,156.41,218.17,144.19Z" style="fill:url(#linear-gradient-2)"/><path d="M74,70.64c-.47-.82-.72,1.7-1.08.89C70.25,65.29,68.61,55.18,69,48c0,0-5.56,2.53-10.16,13.12a36.42,36.42,0,0,1-2,4c-.25.31.57-3.48.44-3.27-.8,1.36-2.87,3.25-3.77,5.59a32.67,32.67,0,0,0-2.08,5.31c-.18.65.18-2.85,0-2.43C40.72,91,38.68,122.32,39.81,121c22.85-24.29,49-30.06,49-30.06C86,88.86,80,83,74,70.64Z" style="fill:url(#linear-gradient-3)"/><path d="M160.49,325.11c-31.48-13.44-67.27-32.4-65.92-75.46,1.84-56.71,52.89-45.51,52.89-45.51-1.93.47-7.08,4.14-8.9,8-1.93,4.89-5.45,15.93,5.22,27.49,16.75,18.15-34.4,43.05,44.54,90.1,2,1.08-18.51-.65-27.83-4.68Z" style="fill:url(#linear-gradient-4)"/><path d="M149.31,296.85c22.32,7.77,48.33,6.41,63.9-2.19,10.42-5.8,23.79-15.09,32-12.8-7.12-2.82-12.52-4.13-19-4.45a32.26,32.26,0,0,1-3.63-.14,60.27,60.27,0,0,0-7.11.39c-4,.37-8.47,2.9-12.52,2.5-.22,0,3.93-1.7,3.59-1.63-2.15.45-4.48.54-6.94.85-1.57.17-2.91.37-4.47.43-46.49,3.94-85.79-25.2-85.79-25.2-3.34,11.26,15,33.55,40,42.25Z" style="fill:url(#linear-gradient-5)"/><path d="M369.93,361.93c47-46.17,70.82-102.3,60.76-165.25,0,0,4,32.28-11.22,65.3,7.32-32.23,8.17-72.29-11.28-113.77-26-55.37-68.65-84.5-84.95-96.65-24.69-18.41-34.93-37.17-35.11-41-7.38,15.11-29.69,66.91-2.4,111.52,25.57,41.79,65.86,54.2,94.06,92.53C431.75,285.19,369.93,361.93,369.93,361.93Z" style="fill:url(#linear-gradient-6)"/><path d="M363.19,241.79c-16.43-34-36.95-48.76-56.35-64.81,2.26,3.16,2.81,4.28,4.06,6.32,17.08,18.2,42.26,62.6,24,118.34-34.42,104.91-172.08,55.51-186.51,41.63C154.21,404,255.84,433,322,393.67,359.66,358,390.13,297.43,363.19,241.79Z" style="fill:url(#linear-gradient-7)"/><path d="M442.18,534H424.93l-18.41,32-18.24-32h-17.9l27,41.29-30.51,46.1h17.25l21.72-37,21.39,37h18.41l-30.35-46.76ZM73.82,621.41H89.07V534H73.82Zm49.83-69L122.16,534h-13.1v87.39h15.26v-45c0-13.59,10-28.69,20.89-28.69a27.29,27.29,0,0,1,7.63,1l2.82-14.92a37.33,37.33,0,0,0-8.62-1c-10.62,0-18.75,6.63-23.39,19.73ZM0,621.41H15.75V571.17H53.06V558.73H15.75v-39H58.87l1.82-12.6H0ZM81.28,501.55C75,501.55,70.67,506,70.67,512c0,5.8,4.31,10.28,10.61,10.28,6.47,0,10.78-4.48,10.78-10.28C92.06,506,87.75,501.55,81.28,501.55Zm247.18,31.17c-24.87,0-39.13,18-39.13,45.08,0,27.69,14.1,45.6,39,45.6,24.71,0,39-18.74,39-45.77-.07-27.69-14-44.9-38.87-44.9Zm-.17,78.41c-14.59,0-22.55-10.61-22.55-33.33,0-22.88,8.13-32.81,22.72-32.81,14.43,0,22.39,9.92,22.39,32.64,0,22.89-8,33.5-22.56,33.5ZM266.5,528c0-8.46,3.32-14.68,12.93-14.68a37.39,37.39,0,0,1,15.26,3.32l4.81-11.11A48.19,48.19,0,0,0,278.6,501c-17.74,0-27.36,11.14-27.36,25.73V534H235.65v11.8h15.59v75.62H266.5V545.8h19.57l1.65-11.8H266.5Zm-72.77,4.75c-22.55,0-36.32,18.71-36.32,45.91,0,27.69,14.26,44.77,38.64,44.77,12.1,0,21.89-4.15,30.51-10.94l-6.63-9.12c-7.63,5.31-14.1,7.63-22.72,7.63-12.6,0-22.05-7.79-23.55-28h55.72c.17-2,.33-4.81.33-7.79,0-26.76-12.43-42.48-36-42.48Zm20.89,38.94h-41c1.16-19.4,8.79-26.84,20.4-26.84,13.76,0,20.56,8.76,20.56,25.84Zm245.14-32.57c0-1.47-1-2.21-3.11-2.21h-1.88v7.42h1.15v-3h1l1.77,3H460l-2-3.22a2,2,0,0,0,1.76-2Zm-3.85,1.23v-2.48h.9c1.15,0,1.77.3,1.77,1.26s-.63,1.23-1.61,1.23Zm1.12-6.2a6.54,6.54,0,0,0-6.52,6.56v0a6.41,6.41,0,0,0,6.32,6.5h.2a6.55,6.55,0,0,0,0-13.1Zm0,12.12a5.38,5.38,0,0,1-5.43-5.33v-.18a5.47,5.47,0,0,1,5.35-5.59H457a5.4,5.4,0,0,1,5.49,5.31v.23a5.45,5.45,0,0,1-5.37,5.53H457Z" style="fill:#363959"/></g></g></g></g></svg>